# xmcd
# 
# Track frame offsets:
#     150
#     27046
#     48390
# 
# Disc length: 875
# 
# Revision: 1
# Processed by: cddbd v1.5.2PL0 Copyright (c) Steve Scherf et al.
# Submitted via: fre:ac v1.0.17
# 
DISCID=1a036903
DTITLE=ムック - 雨のオーケストラ
DYEAR=2005
DGENRE=Rock
TTITLE0=雨のオーケストラ
TTITLE1=死生、命あり
TTITLE2=語り部の詩
EXTD=
EXTT0=
EXTT1=
EXTT2=
PLAYORDER=
